<svg width="300" height="300" viewBox="0 0 300 300" fill="none" xmlns="http://www.w3.org/2000/svg">
<path d="M193.362 177.835C176.003 169.878 173.308 139.904 173.308 139.904C173.308 139.904 145.145 175.13 134.398 163.383C125.996 154.203 148.962 120.893 177.32 112.113C200.06 105.08 211.571 136.23 214.879 148.97C223.501 182.232 281.8 205.351 333.199 229.189" stroke="#271A58" stroke-miterlimit="10" stroke-linecap="round"/>
<path d="M142.041 165.596C147.754 170.64 153.934 173.699 158.13 172.477C165.805 170.242 167.549 164.194 167.41 158.789" stroke="#271A58" stroke-miterlimit="10" stroke-linecap="round"/>
<path d="M158.289 155.496C162.334 158.053 166.247 159.298 169.186 158.442C172.526 157.47 174.743 155.775 176.17 153.725" stroke="#271A58" stroke-miterlimit="10" stroke-linecap="round"/>
<path d="M132.839 155.164C122.104 141.176 113.784 122.391 119.394 114.982C121.819 111.777 125.498 110.463 128.646 109.959" stroke="#271A58" stroke-miterlimit="10" stroke-linecap="round"/>
<path d="M141.56 138.275C131.947 124.718 125.121 107.996 130.337 101.107C133.148 97.3925 137.643 96.2176 141.044 95.9013" stroke="#271A58" stroke-miterlimit="10" stroke-linecap="round"/>
<path d="M120.511 134.056C120.511 134.056 109.814 131.328 105.762 140.724C99.1236 156.082 140.349 204.74 153.649 194.766C162.802 187.903 158.134 172.489 158.134 172.489" stroke="#271A58" stroke-miterlimit="10" stroke-linecap="round"/>
<path d="M121.099 176.025C121.099 176.025 116.041 181.361 123.168 192.829C134.32 210.773 151.302 214.874 156.548 207.722C162.162 200.087 155.258 193.32 155.258 193.32" stroke="#271A58" stroke-miterlimit="10" stroke-linecap="round"/>
<path d="M148.973 109.111L161.952 119.448" stroke="#271A58" stroke-miterlimit="10" stroke-linecap="round"/>
<path d="M168.769 210.062C173.261 208.3 177.556 205.568 180.259 203.481C180.259 203.481 228.561 241.243 307.401 276.926L333.198 229.188" stroke="#271A58" stroke-miterlimit="10" stroke-linecap="round"/>
<path d="M140.262 140.389C140.262 140.389 140.644 153.184 134.384 163.389" stroke="#271A58" stroke-miterlimit="10" stroke-linecap="round"/>
<path d="M152.289 160.668C152.892 160.648 160.234 164.606 162.377 170.246" stroke="#271A58" stroke-miterlimit="10" stroke-linecap="round"/>
<path d="M173.321 156.371C171.945 152.751 168.428 149.824 165.926 148.197" stroke="#271A58" stroke-miterlimit="10" stroke-linecap="round"/>
<path d="M130.672 185.906C130.672 185.906 136.354 177.74 142.256 179.521C148.159 181.303 157.677 188.875 157.677 188.875" stroke="#271A58" stroke-miterlimit="10" stroke-linecap="round"/>
<path d="M136.025 206.083C136.025 206.083 140.548 200.186 144.993 201.296C149.439 202.406 156.491 207.509 156.491 207.509" stroke="#271A58" stroke-miterlimit="10" stroke-linecap="round"/>
<ellipse cx="90.4907" cy="224.784" rx="27.4047" ry="37.9638" transform="rotate(44.5136 90.4907 224.784)" stroke="#271A58" stroke-miterlimit="10" stroke-linecap="round"/>
<ellipse cx="89.8954" cy="223.683" rx="15.4173" ry="21.3577" transform="rotate(44.5136 89.8954 223.683)" stroke="#271A58" stroke-miterlimit="10" stroke-linecap="round"/>
<ellipse cx="89.896" cy="223.683" rx="1.62117" ry="2.24581" transform="rotate(44.5136 89.896 223.683)" fill="#271A58"/>
<ellipse cx="84.5854" cy="228.679" rx="1.62117" ry="2.24581" transform="rotate(44.5136 84.5854 228.679)" fill="#271A58"/>
<ellipse cx="95.4507" cy="218.642" rx="1.62117" ry="2.24581" transform="rotate(44.5136 95.4507 218.642)" fill="#271A58"/>
<ellipse cx="89.8647" cy="217.832" rx="1.62117" ry="2.24581" transform="rotate(44.5136 89.8647 217.832)" fill="#271A58"/>
<ellipse cx="95.9136" cy="224.912" rx="1.62117" ry="2.24581" transform="rotate(44.5136 95.9136 224.912)" fill="#271A58"/>
<ellipse cx="84.5464" cy="222.638" rx="1.62117" ry="2.24581" transform="rotate(44.5136 84.5464 222.638)" fill="#271A58"/>
<ellipse cx="90.5952" cy="229.718" rx="1.62117" ry="2.24581" transform="rotate(44.5136 90.5952 229.718)" fill="#271A58"/>
<path d="M100.89 234.493L101.247 234.843L101.247 234.843L100.89 234.493ZM75.8404 239.723L75.4108 239.979L75.458 240.058L75.5303 240.115L75.8404 239.723ZM106.667 210.745L107.096 210.489L107.049 210.41L106.977 210.352L106.667 210.745ZM81.6166 215.975L81.26 215.624L81.26 215.624L81.6166 215.975ZM100.534 234.142C96.6614 238.081 92.0529 240.574 87.6641 241.478C83.2729 242.383 79.14 241.693 76.1504 239.33L75.5303 240.115C78.8099 242.707 83.2669 243.405 87.8659 242.457C92.4672 241.509 97.2492 238.909 101.247 234.843L100.534 234.142ZM106.237 211.001C109.851 217.067 107.758 226.795 100.534 234.142L101.247 234.843C108.646 227.318 111.033 217.097 107.096 210.489L106.237 211.001ZM81.9731 216.325C85.8456 212.387 90.4542 209.894 94.843 208.99C99.2342 208.085 103.367 208.774 106.357 211.137L106.977 210.352C103.697 207.761 99.2401 207.063 94.6412 208.01C90.0398 208.958 85.2579 211.558 81.26 215.624L81.9731 216.325ZM76.2699 239.467C72.6565 233.401 74.7494 223.673 81.9731 216.325L81.26 215.624C73.8613 223.15 71.4743 233.37 75.4108 239.979L76.2699 239.467Z" fill="#271A58"/>
<path d="M116.543 197.178L127.177 207.5C137.969 218.111 134.802 238.833 120.103 253.784C105.403 268.735 84.7381 272.254 73.9454 261.643L63.1834 251.166" stroke="#271A58" stroke-miterlimit="10" stroke-linecap="round"/>
<ellipse cx="155.018" cy="62.6517" rx="27.4047" ry="37.9638" transform="rotate(2.14363 155.018 62.6517)" stroke="#271A58" stroke-miterlimit="10" stroke-linecap="round"/>
<ellipse cx="153.836" cy="62.2397" rx="15.4173" ry="21.3577" transform="rotate(2.14363 153.836 62.2397)" stroke="#271A58" stroke-miterlimit="10" stroke-linecap="round"/>
<ellipse cx="153.837" cy="62.2404" rx="1.62116" ry="2.2458" transform="rotate(2.14363 153.837 62.2404)" fill="#271A58"/>
<ellipse cx="153.278" cy="69.5099" rx="1.62116" ry="2.2458" transform="rotate(2.14363 153.278 69.5099)" fill="#271A58"/>
<ellipse cx="154.542" cy="54.7717" rx="1.62116" ry="2.2458" transform="rotate(2.14363 154.542 54.7717)" fill="#271A58"/>
<ellipse cx="149.87" cy="57.9377" rx="1.62116" ry="2.2458" transform="rotate(2.14363 149.87 57.9377)" fill="#271A58"/>
<ellipse cx="159.11" cy="59.092" rx="1.62116" ry="2.2458" transform="rotate(2.14363 159.11 59.092)" fill="#271A58"/>
<ellipse cx="149.179" cy="65.0724" rx="1.62116" ry="2.2458" transform="rotate(2.14363 149.179 65.0724)" fill="#271A58"/>
<ellipse cx="158.421" cy="66.2267" rx="1.62116" ry="2.2458" transform="rotate(2.14363 158.421 66.2267)" fill="#271A58"/>
<path d="M169.242 62.8165L169.742 62.8352L169.742 62.8352L169.242 62.8165ZM154.259 83.5623L154.114 84.0409L154.203 84.0676L154.295 84.0611L154.259 83.5623ZM157.506 41.3789L157.651 40.9003L157.563 40.8736L157.471 40.8801L157.506 41.3789ZM142.523 62.1247L142.024 62.106L142.024 62.106L142.523 62.1247ZM168.743 62.7978C168.536 68.3177 166.811 73.2652 164.178 76.8909C161.543 80.5187 158.025 82.7945 154.224 83.0636L154.295 84.0611C158.464 83.7659 162.228 81.278 164.987 77.4786C167.748 73.6772 169.529 68.5338 169.742 62.8352L168.743 62.7978ZM157.361 41.8574C164.119 43.9042 169.128 52.5016 168.743 62.7978L169.742 62.8352C170.137 52.2895 165.013 43.1301 157.651 40.9003L157.361 41.8574ZM143.023 62.1434C143.229 56.6235 144.955 51.676 147.588 48.0502C150.222 44.4225 153.741 42.1467 157.542 41.8776L157.471 40.8801C153.301 41.1753 149.538 43.6632 146.779 47.4626C144.018 51.264 142.237 56.4074 142.024 62.106L143.023 62.1434ZM154.404 83.0838C147.647 81.037 142.637 72.4396 143.023 62.1434L142.024 62.106C141.629 72.6517 146.753 81.8111 154.114 84.0409L154.404 83.0838Z" fill="#271A58"/>
<path d="M155.661 24.6996L170.473 25.1594C185.598 25.7256 197.223 43.1696 196.439 64.1217C195.655 85.0738 182.758 101.6 167.633 101.034L152.622 100.546" stroke="#271A58" stroke-miterlimit="10" stroke-linecap="round"/>
<path d="M88.2413 267.764C103.384 273.709 124.753 277.672 146.179 245.94C165.944 216.666 173.15 205.567 185.013 171.398M185.141 31.7754C197.837 40.2377 203.661 51.3032 205.936 73.0516C207.319 86.2746 205.547 101.04 200.834 119.924M121.887 202.512C123.045 203.134 124.417 202.98 125.959 202.149C126.813 201.689 127.719 201.02 128.669 200.161M159.817 100.824C161.889 105.318 163.187 109.644 163.805 113.972C163.999 115.327 164.126 116.681 164.189 118.042" stroke="#271A58" stroke-miterlimit="10" stroke-linecap="round"/>
</svg>
