<svg width="223" height="36" viewBox="0 0 223 36" fill="none" xmlns="http://www.w3.org/2000/svg">
<path d="M39.4011 12.0127C39.4011 14.7847 40.8291 16.4367 42.6771 17.7527L45.0571 19.4607C46.3171 20.3567 47.2411 21.3927 47.2411 22.9607C47.2411 24.3607 46.3171 25.2007 44.8611 25.2007C43.4331 25.2007 42.4811 24.1647 42.4811 22.4847V21.0007H39.1211V22.6807C39.1211 26.2927 41.6971 28.2807 44.8611 28.2807C48.0251 28.2807 50.6011 26.3767 50.6011 22.5407C50.6011 19.8527 49.1171 18.2007 47.2971 16.8847L44.8331 15.1207C43.6571 14.2807 42.7611 13.4127 42.7611 12.0127C42.7611 10.5847 43.6011 9.8007 44.8331 9.8007C46.1491 9.8007 46.9611 10.6127 46.9611 12.4047V13.7207H50.3211V12.3207C50.3211 8.5407 47.8851 6.7207 44.8331 6.7207C41.8371 6.7207 39.4011 8.2327 39.4011 12.0127Z" fill="black"/>
<path d="M57.4709 7.0007H54.1109V28.0007H57.4709V20.6367L63.4909 28.0007H67.6909L61.1669 20.3567L67.3269 14.0007H62.9029L57.4709 20.1047V7.0007Z" fill="black"/>
<path d="M77.139 29.4567L82.431 14.0007H79.071L75.543 24.7807L72.043 14.0007H68.683L73.947 29.4287C73.135 31.3887 72.155 32.3127 70.587 32.3127C69.915 32.3127 69.271 32.1727 68.739 32.0047V34.9727C69.271 35.1407 70.083 35.2807 70.895 35.2807C74.451 35.2807 75.963 32.9007 77.139 29.4567Z" fill="black"/>
<path d="M89.4503 28.0007V19.3207H94.8823V16.2407H89.4503V10.0807H95.7223V7.0007H86.0903V28.0007H89.4503Z" fill="black"/>
<path d="M100.471 11.2007C101.703 11.2007 102.571 10.2767 102.571 9.1007C102.571 7.8967 101.703 7.0007 100.471 7.0007C99.2669 7.0007 98.3709 7.8967 98.3709 9.1007C98.3709 10.2767 99.2669 11.2007 100.471 11.2007ZM102.151 28.0007V14.0007H98.7909V28.0007H102.151Z" fill="black"/>
<path d="M110.824 23.2127V16.9407H114.464V14.0007H110.824V9.8007H107.464V14.0007H105.224V16.9407H107.464V23.4367C107.464 27.1887 109.48 28.2807 112.252 28.2807C113.064 28.2807 113.96 28.1127 114.464 27.9447V24.9487C113.988 25.1167 113.4 25.2007 112.924 25.2007C111.468 25.2007 110.824 24.5847 110.824 23.2127Z" fill="black"/>
<path d="M127.335 20.3007V28.0007H130.695V19.6287C130.695 15.6807 128.455 13.7207 125.487 13.7207C123.751 13.7207 122.323 14.5327 121.455 16.0167V14.0007H118.095V28.0007H121.455V20.3007C121.455 17.9487 122.575 16.6607 124.395 16.6607C126.215 16.6607 127.335 17.9487 127.335 20.3007Z" fill="black"/>
<path d="M147.885 22.1207C147.913 21.7567 147.941 21.3927 147.941 21.0007C147.941 16.7167 145.001 13.7207 140.997 13.7207C136.993 13.7207 134.053 16.7167 134.053 21.0007C134.053 25.2847 136.993 28.2807 140.997 28.2807C144.301 28.2807 146.737 26.7127 147.577 23.8007H143.937C143.489 24.7807 142.621 25.3407 141.137 25.3407C139.065 25.3407 137.721 24.1647 137.357 22.1207H147.885ZM140.997 16.6607C142.957 16.6607 144.245 17.7807 144.609 19.7407H137.385C137.749 17.7807 139.037 16.6607 140.997 16.6607Z" fill="black"/>
<path d="M162.485 23.9687C162.485 18.2007 154.253 20.4967 154.253 17.8087C154.253 16.9127 155.093 16.3807 156.353 16.3807C157.725 16.3807 158.733 17.2767 158.733 18.4527H162.233C162.233 15.7927 159.713 13.7207 156.353 13.7207C153.245 13.7207 150.865 15.3447 150.865 17.9487C150.865 23.6607 159.013 21.1407 159.013 24.1087C159.013 25.1447 158.173 25.6487 156.773 25.6487C155.261 25.6487 154.113 24.8927 154.113 23.3807H150.613C150.613 26.4887 153.273 28.2807 156.773 28.2807C160.049 28.2807 162.485 26.6287 162.485 23.9687Z" fill="black"/>
<path d="M177.154 23.9687C177.154 18.2007 168.922 20.4967 168.922 17.8087C168.922 16.9127 169.762 16.3807 171.022 16.3807C172.394 16.3807 173.402 17.2767 173.402 18.4527H176.902C176.902 15.7927 174.382 13.7207 171.022 13.7207C167.914 13.7207 165.534 15.3447 165.534 17.9487C165.534 23.6607 173.682 21.1407 173.682 24.1087C173.682 25.1447 172.842 25.6487 171.442 25.6487C169.93 25.6487 168.782 24.8927 168.782 23.3807H165.282C165.282 26.4887 167.942 28.2807 171.442 28.2807C174.718 28.2807 177.154 26.6287 177.154 23.9687Z" fill="black"/>
<path d="M185.152 28.0007V20.1607H187.924C191.368 20.1607 193.832 18.0327 193.832 14.1407V12.7407C193.832 8.9887 191.368 7.0007 187.924 7.0007H181.792V28.0007H185.152ZM187.644 10.0807C189.38 10.0807 190.472 10.8927 190.472 13.0207V13.8607C190.472 16.1567 189.38 17.0807 187.644 17.0807H185.152V10.0807H187.644Z" fill="black"/>
<path d="M200.559 14.0007H197.199V28.0007H200.559V20.8607C200.559 18.5087 202.015 17.2207 204.507 17.2207C205.067 17.2207 205.571 17.3047 205.963 17.4447V13.7767C205.795 13.7207 205.515 13.7207 205.263 13.7207C203.219 13.7207 201.567 14.6167 200.559 16.2687V14.0007Z" fill="black"/>
<path d="M214.939 28.2807C219.027 28.2807 222.079 25.2847 222.079 21.0007C222.079 16.7167 219.027 13.7207 214.939 13.7207C210.851 13.7207 207.799 16.7167 207.799 21.0007C207.799 25.2847 210.851 28.2807 214.939 28.2807ZM214.939 25.2007C212.783 25.2007 211.159 23.5207 211.159 21.0007C211.159 18.4807 212.783 16.8007 214.939 16.8007C217.095 16.8007 218.719 18.4807 218.719 21.0007C218.719 23.5207 217.095 25.2007 214.939 25.2007Z" fill="black"/>
<path d="M3.68844 28.4574C1.54195 29.6972 0 28.664 0 26.8262C0 24.8698 0 18.9996 0 18.9996C0 18.9996 0 13.1294 0 11.173C0 9.33518 1.54099 8.30196 3.68844 9.54182C7.03156 11.4724 17.06 17.2661 17.06 17.2661C18.3934 18.0362 18.3934 19.962 17.06 20.7322C17.06 20.7331 7.03156 26.5268 3.68844 28.4574Z" fill="#00C1FF"/>
<path d="M14.7255 28.4574C12.5791 29.6972 11.0371 28.664 11.0371 26.8262C11.0371 24.8698 11.0371 18.9996 11.0371 18.9996C11.0371 18.9996 11.0371 13.1294 11.0371 11.173C11.0371 9.33518 12.5781 8.30196 14.7255 9.54182C17.995 11.4303 27.8034 17.0968 27.8034 17.0968C29.2679 17.9425 29.2679 20.0567 27.8034 20.9024C27.8025 20.9024 17.995 26.5689 14.7255 28.4574Z" fill="#BCEC30"/>
<mask id="mask0_33_4882" style="mask-type:alpha" maskUnits="userSpaceOnUse" x="11" y="9" width="18" height="20">
<path d="M14.7255 28.4574C12.5791 29.6972 11.0371 28.664 11.0371 26.8262C11.0371 24.8698 11.0371 18.9996 11.0371 18.9996C11.0371 18.9996 11.0371 13.1294 11.0371 11.173C11.0371 9.33518 12.5781 8.30196 14.7255 9.54182C17.995 11.4303 27.8034 17.0968 27.8034 17.0968C29.2679 17.9425 29.2679 20.0567 27.8034 20.9024C27.8025 20.9024 17.995 26.5689 14.7255 28.4574Z" fill="#6FE4FF"/>
</mask>
<g mask="url(#mask0_33_4882)">
<g filter="url(#filter0_f_33_4882)">
<path d="M3.68844 28.4593C1.54195 29.6992 0 28.666 0 26.8282C0 24.8718 0 19.0016 0 19.0016C0 19.0016 0 13.1313 0 11.1749C0 9.33713 1.54099 8.30391 3.68844 9.54377C7.03156 11.4744 17.06 17.268 17.06 17.268C18.3934 18.0382 18.3934 19.964 17.06 20.7341C17.06 20.7351 7.03156 26.5287 3.68844 28.4593Z" fill="#99D100"/>
</g>
</g>
<defs>
<filter id="filter0_f_33_4882" x="-1.46124" y="7.54071" width="20.983" height="22.9225" filterUnits="userSpaceOnUse" color-interpolation-filters="sRGB">
<feFlood flood-opacity="0" result="BackgroundImageFix"/>
<feBlend mode="normal" in="SourceGraphic" in2="BackgroundImageFix" result="shape"/>
<feGaussianBlur stdDeviation="0.730621" result="effect1_foregroundBlur_33_4882"/>
</filter>
</defs>
</svg>
