<svg width="67" height="67" viewBox="0 0 67 67" fill="none" xmlns="http://www.w3.org/2000/svg">
<rect width="67" height="67" rx="33.5" fill="#C7E957"/>
<path d="M33.6666 35.0312C35.8426 35.0312 37.2186 36.0872 37.2186 38.7432V39.4472C37.2186 42.0392 35.8426 43.1592 33.6666 43.1592C31.4906 43.1592 30.0506 42.0072 30.0506 39.3832V38.2632H26.8506V39.6712C26.8506 43.8632 29.8906 46.1032 33.6666 46.1032C37.4106 46.1032 40.4186 43.8632 40.4186 39.7352V38.3272C40.4186 35.7352 39.0426 33.9752 36.9626 33.1112C38.6586 32.2472 39.7786 30.6472 39.7786 28.3752V27.2232C39.7786 23.4792 37.0266 21.4632 33.6666 21.4632C30.2426 21.4632 27.4906 23.4472 27.4906 27.1592V28.3112H30.6906V27.4472C30.6906 25.3032 31.9386 24.4072 33.6666 24.4072C35.3946 24.4072 36.5786 25.3032 36.5786 27.5112V28.4712C36.5786 30.8392 35.4586 31.8312 33.6666 31.8312H31.8746V35.0312H33.6666Z" fill="black"/>
</svg>
