<svg>
    <symbol id="icon-hand-phone"  viewBox="0 0 300 300" xmlns="http://www.w3.org/2000/svg">
        <path d="M193.362 177.835C176.003 169.878 173.308 139.904 173.308 139.904C173.308 139.904 145.145 175.13 134.398 163.383C125.996 154.203 148.962 120.893 177.32 112.113C200.06 105.08 211.571 136.23 214.879 148.97C223.501 182.232 281.8 205.351 333.199 229.189" stroke="#271A58" stroke-miterlimit="10" stroke-linecap="round"/>
        <path d="M142.041 165.596C147.754 170.64 153.934 173.699 158.13 172.477C165.805 170.242 167.549 164.194 167.41 158.789" stroke="#271A58" stroke-miterlimit="10" stroke-linecap="round"/>
        <path d="M158.289 155.496C162.334 158.053 166.247 159.298 169.186 158.442C172.526 157.47 174.743 155.775 176.17 153.725" stroke="#271A58" stroke-miterlimit="10" stroke-linecap="round"/>
        <path d="M132.839 155.164C122.104 141.176 113.784 122.391 119.394 114.982C121.819 111.777 125.498 110.463 128.646 109.959" stroke="#271A58" stroke-miterlimit="10" stroke-linecap="round"/>
        <path d="M141.56 138.275C131.947 124.718 125.121 107.996 130.337 101.107C133.148 97.3925 137.643 96.2176 141.044 95.9013" stroke="#271A58" stroke-miterlimit="10" stroke-linecap="round"/>
        <path d="M120.511 134.056C120.511 134.056 109.814 131.328 105.762 140.724C99.1236 156.082 140.349 204.74 153.649 194.766C162.802 187.903 158.134 172.489 158.134 172.489" stroke="#271A58" stroke-miterlimit="10" stroke-linecap="round"/>
        <path d="M121.099 176.025C121.099 176.025 116.041 181.361 123.168 192.829C134.32 210.773 151.302 214.874 156.548 207.722C162.162 200.087 155.258 193.32 155.258 193.32" stroke="#271A58" stroke-miterlimit="10" stroke-linecap="round"/>
        <path d="M148.973 109.111L161.952 119.448" stroke="#271A58" stroke-miterlimit="10" stroke-linecap="round"/>
        <path d="M168.769 210.062C173.261 208.3 177.556 205.568 180.259 203.481C180.259 203.481 228.561 241.243 307.401 276.926L333.198 229.188" stroke="#271A58" stroke-miterlimit="10" stroke-linecap="round"/>
        <path d="M140.262 140.389C140.262 140.389 140.644 153.184 134.384 163.389" stroke="#271A58" stroke-miterlimit="10" stroke-linecap="round"/>
        <path d="M152.289 160.668C152.892 160.648 160.234 164.606 162.377 170.246" stroke="#271A58" stroke-miterlimit="10" stroke-linecap="round"/>
        <path d="M173.321 156.371C171.945 152.751 168.428 149.824 165.926 148.197" stroke="#271A58" stroke-miterlimit="10" stroke-linecap="round"/>
        <path d="M130.672 185.906C130.672 185.906 136.354 177.74 142.256 179.521C148.159 181.303 157.677 188.875 157.677 188.875" stroke="#271A58" stroke-miterlimit="10" stroke-linecap="round"/>
        <path d="M136.025 206.083C136.025 206.083 140.548 200.186 144.993 201.296C149.439 202.406 156.491 207.509 156.491 207.509" stroke="#271A58" stroke-miterlimit="10" stroke-linecap="round"/>
        <ellipse cx="90.4907" cy="224.784" rx="27.4047" ry="37.9638" transform="rotate(44.5136 90.4907 224.784)" stroke="#271A58" stroke-miterlimit="10" stroke-linecap="round"/>
        <ellipse cx="89.8954" cy="223.683" rx="15.4173" ry="21.3577" transform="rotate(44.5136 89.8954 223.683)" stroke="#271A58" stroke-miterlimit="10" stroke-linecap="round"/>
        <ellipse cx="89.896" cy="223.683" rx="1.62117" ry="2.24581" transform="rotate(44.5136 89.896 223.683)" fill="#271A58"/>
        <ellipse cx="84.5854" cy="228.679" rx="1.62117" ry="2.24581" transform="rotate(44.5136 84.5854 228.679)" fill="#271A58"/>
        <ellipse cx="95.4507" cy="218.642" rx="1.62117" ry="2.24581" transform="rotate(44.5136 95.4507 218.642)" fill="#271A58"/>
        <ellipse cx="89.8647" cy="217.832" rx="1.62117" ry="2.24581" transform="rotate(44.5136 89.8647 217.832)" fill="#271A58"/>
        <ellipse cx="95.9136" cy="224.912" rx="1.62117" ry="2.24581" transform="rotate(44.5136 95.9136 224.912)" fill="#271A58"/>
        <ellipse cx="84.5464" cy="222.638" rx="1.62117" ry="2.24581" transform="rotate(44.5136 84.5464 222.638)" fill="#271A58"/>
        <ellipse cx="90.5952" cy="229.718" rx="1.62117" ry="2.24581" transform="rotate(44.5136 90.5952 229.718)" fill="#271A58"/>
        <path d="M100.89 234.493L101.247 234.843L101.247 234.843L100.89 234.493ZM75.8404 239.723L75.4108 239.979L75.458 240.058L75.5303 240.115L75.8404 239.723ZM106.667 210.745L107.096 210.489L107.049 210.41L106.977 210.352L106.667 210.745ZM81.6166 215.975L81.26 215.624L81.26 215.624L81.6166 215.975ZM100.534 234.142C96.6614 238.081 92.0529 240.574 87.6641 241.478C83.2729 242.383 79.14 241.693 76.1504 239.33L75.5303 240.115C78.8099 242.707 83.2669 243.405 87.8659 242.457C92.4672 241.509 97.2492 238.909 101.247 234.843L100.534 234.142ZM106.237 211.001C109.851 217.067 107.758 226.795 100.534 234.142L101.247 234.843C108.646 227.318 111.033 217.097 107.096 210.489L106.237 211.001ZM81.9731 216.325C85.8456 212.387 90.4542 209.894 94.843 208.99C99.2342 208.085 103.367 208.774 106.357 211.137L106.977 210.352C103.697 207.761 99.2401 207.063 94.6412 208.01C90.0398 208.958 85.2579 211.558 81.26 215.624L81.9731 216.325ZM76.2699 239.467C72.6565 233.401 74.7494 223.673 81.9731 216.325L81.26 215.624C73.8613 223.15 71.4743 233.37 75.4108 239.979L76.2699 239.467Z" fill="#271A58"/>
        <path d="M116.543 197.178L127.177 207.5C137.969 218.111 134.802 238.833 120.103 253.784C105.403 268.735 84.7381 272.254 73.9454 261.643L63.1834 251.166" stroke="#271A58" stroke-miterlimit="10" stroke-linecap="round"/>
        <ellipse cx="155.018" cy="62.6517" rx="27.4047" ry="37.9638" transform="rotate(2.14363 155.018 62.6517)" stroke="#271A58" stroke-miterlimit="10" stroke-linecap="round"/>
        <ellipse cx="153.836" cy="62.2397" rx="15.4173" ry="21.3577" transform="rotate(2.14363 153.836 62.2397)" stroke="#271A58" stroke-miterlimit="10" stroke-linecap="round"/>
        <ellipse cx="153.837" cy="62.2404" rx="1.62116" ry="2.2458" transform="rotate(2.14363 153.837 62.2404)" fill="#271A58"/>
        <ellipse cx="153.278" cy="69.5099" rx="1.62116" ry="2.2458" transform="rotate(2.14363 153.278 69.5099)" fill="#271A58"/>
        <ellipse cx="154.542" cy="54.7717" rx="1.62116" ry="2.2458" transform="rotate(2.14363 154.542 54.7717)" fill="#271A58"/>
        <ellipse cx="149.87" cy="57.9377" rx="1.62116" ry="2.2458" transform="rotate(2.14363 149.87 57.9377)" fill="#271A58"/>
        <ellipse cx="159.11" cy="59.092" rx="1.62116" ry="2.2458" transform="rotate(2.14363 159.11 59.092)" fill="#271A58"/>
        <ellipse cx="149.179" cy="65.0724" rx="1.62116" ry="2.2458" transform="rotate(2.14363 149.179 65.0724)" fill="#271A58"/>
        <ellipse cx="158.421" cy="66.2267" rx="1.62116" ry="2.2458" transform="rotate(2.14363 158.421 66.2267)" fill="#271A58"/>
        <path d="M169.242 62.8165L169.742 62.8352L169.742 62.8352L169.242 62.8165ZM154.259 83.5623L154.114 84.0409L154.203 84.0676L154.295 84.0611L154.259 83.5623ZM157.506 41.3789L157.651 40.9003L157.563 40.8736L157.471 40.8801L157.506 41.3789ZM142.523 62.1247L142.024 62.106L142.024 62.106L142.523 62.1247ZM168.743 62.7978C168.536 68.3177 166.811 73.2652 164.178 76.8909C161.543 80.5187 158.025 82.7945 154.224 83.0636L154.295 84.0611C158.464 83.7659 162.228 81.278 164.987 77.4786C167.748 73.6772 169.529 68.5338 169.742 62.8352L168.743 62.7978ZM157.361 41.8574C164.119 43.9042 169.128 52.5016 168.743 62.7978L169.742 62.8352C170.137 52.2895 165.013 43.1301 157.651 40.9003L157.361 41.8574ZM143.023 62.1434C143.229 56.6235 144.955 51.676 147.588 48.0502C150.222 44.4225 153.741 42.1467 157.542 41.8776L157.471 40.8801C153.301 41.1753 149.538 43.6632 146.779 47.4626C144.018 51.264 142.237 56.4074 142.024 62.106L143.023 62.1434ZM154.404 83.0838C147.647 81.037 142.637 72.4396 143.023 62.1434L142.024 62.106C141.629 72.6517 146.753 81.8111 154.114 84.0409L154.404 83.0838Z" fill="#271A58"/>
        <path d="M155.661 24.6996L170.473 25.1594C185.598 25.7256 197.223 43.1696 196.439 64.1217C195.655 85.0738 182.758 101.6 167.633 101.034L152.622 100.546" stroke="#271A58" stroke-miterlimit="10" stroke-linecap="round"/>
        <path d="M88.2413 267.764C103.384 273.709 124.753 277.672 146.179 245.94C165.944 216.666 173.15 205.567 185.013 171.398M185.141 31.7754C197.837 40.2377 203.661 51.3032 205.936 73.0516C207.319 86.2746 205.547 101.04 200.834 119.924M121.887 202.512C123.045 203.134 124.417 202.98 125.959 202.149C126.813 201.689 127.719 201.02 128.669 200.161M159.817 100.824C161.889 105.318 163.187 109.644 163.805 113.972C163.999 115.327 164.126 116.681 164.189 118.042" stroke="#271A58" stroke-miterlimit="10" stroke-linecap="round"/>
    </symbol>
    <symbol id="icon-logo"  viewBox="0 0 223 36" xmlns="http://www.w3.org/2000/svg">
        <path d="M39.4011 12.0127C39.4011 14.7847 40.8291 16.4367 42.6771 17.7527L45.0571 19.4607C46.3171 20.3567 47.2411 21.3927 47.2411 22.9607C47.2411 24.3607 46.3171 25.2007 44.8611 25.2007C43.4331 25.2007 42.4811 24.1647 42.4811 22.4847V21.0007H39.1211V22.6807C39.1211 26.2927 41.6971 28.2807 44.8611 28.2807C48.0251 28.2807 50.6011 26.3767 50.6011 22.5407C50.6011 19.8527 49.1171 18.2007 47.2971 16.8847L44.8331 15.1207C43.6571 14.2807 42.7611 13.4127 42.7611 12.0127C42.7611 10.5847 43.6011 9.8007 44.8331 9.8007C46.1491 9.8007 46.9611 10.6127 46.9611 12.4047V13.7207H50.3211V12.3207C50.3211 8.5407 47.8851 6.7207 44.8331 6.7207C41.8371 6.7207 39.4011 8.2327 39.4011 12.0127Z" fill="black"/>
        <path d="M57.4709 7.0007H54.1109V28.0007H57.4709V20.6367L63.4909 28.0007H67.6909L61.1669 20.3567L67.3269 14.0007H62.9029L57.4709 20.1047V7.0007Z" fill="black"/>
        <path d="M77.139 29.4567L82.431 14.0007H79.071L75.543 24.7807L72.043 14.0007H68.683L73.947 29.4287C73.135 31.3887 72.155 32.3127 70.587 32.3127C69.915 32.3127 69.271 32.1727 68.739 32.0047V34.9727C69.271 35.1407 70.083 35.2807 70.895 35.2807C74.451 35.2807 75.963 32.9007 77.139 29.4567Z" fill="black"/>
        <path d="M89.4503 28.0007V19.3207H94.8823V16.2407H89.4503V10.0807H95.7223V7.0007H86.0903V28.0007H89.4503Z" fill="black"/>
        <path d="M100.471 11.2007C101.703 11.2007 102.571 10.2767 102.571 9.1007C102.571 7.8967 101.703 7.0007 100.471 7.0007C99.2669 7.0007 98.3709 7.8967 98.3709 9.1007C98.3709 10.2767 99.2669 11.2007 100.471 11.2007ZM102.151 28.0007V14.0007H98.7909V28.0007H102.151Z" fill="black"/>
        <path d="M110.824 23.2127V16.9407H114.464V14.0007H110.824V9.8007H107.464V14.0007H105.224V16.9407H107.464V23.4367C107.464 27.1887 109.48 28.2807 112.252 28.2807C113.064 28.2807 113.96 28.1127 114.464 27.9447V24.9487C113.988 25.1167 113.4 25.2007 112.924 25.2007C111.468 25.2007 110.824 24.5847 110.824 23.2127Z" fill="black"/>
        <path d="M127.335 20.3007V28.0007H130.695V19.6287C130.695 15.6807 128.455 13.7207 125.487 13.7207C123.751 13.7207 122.323 14.5327 121.455 16.0167V14.0007H118.095V28.0007H121.455V20.3007C121.455 17.9487 122.575 16.6607 124.395 16.6607C126.215 16.6607 127.335 17.9487 127.335 20.3007Z" fill="black"/>
        <path d="M147.885 22.1207C147.913 21.7567 147.941 21.3927 147.941 21.0007C147.941 16.7167 145.001 13.7207 140.997 13.7207C136.993 13.7207 134.053 16.7167 134.053 21.0007C134.053 25.2847 136.993 28.2807 140.997 28.2807C144.301 28.2807 146.737 26.7127 147.577 23.8007H143.937C143.489 24.7807 142.621 25.3407 141.137 25.3407C139.065 25.3407 137.721 24.1647 137.357 22.1207H147.885ZM140.997 16.6607C142.957 16.6607 144.245 17.7807 144.609 19.7407H137.385C137.749 17.7807 139.037 16.6607 140.997 16.6607Z" fill="black"/>
        <path d="M162.485 23.9687C162.485 18.2007 154.253 20.4967 154.253 17.8087C154.253 16.9127 155.093 16.3807 156.353 16.3807C157.725 16.3807 158.733 17.2767 158.733 18.4527H162.233C162.233 15.7927 159.713 13.7207 156.353 13.7207C153.245 13.7207 150.865 15.3447 150.865 17.9487C150.865 23.6607 159.013 21.1407 159.013 24.1087C159.013 25.1447 158.173 25.6487 156.773 25.6487C155.261 25.6487 154.113 24.8927 154.113 23.3807H150.613C150.613 26.4887 153.273 28.2807 156.773 28.2807C160.049 28.2807 162.485 26.6287 162.485 23.9687Z" fill="black"/>
        <path d="M177.154 23.9687C177.154 18.2007 168.922 20.4967 168.922 17.8087C168.922 16.9127 169.762 16.3807 171.022 16.3807C172.394 16.3807 173.402 17.2767 173.402 18.4527H176.902C176.902 15.7927 174.382 13.7207 171.022 13.7207C167.914 13.7207 165.534 15.3447 165.534 17.9487C165.534 23.6607 173.682 21.1407 173.682 24.1087C173.682 25.1447 172.842 25.6487 171.442 25.6487C169.93 25.6487 168.782 24.8927 168.782 23.3807H165.282C165.282 26.4887 167.942 28.2807 171.442 28.2807C174.718 28.2807 177.154 26.6287 177.154 23.9687Z" fill="black"/>
        <path d="M185.152 28.0007V20.1607H187.924C191.368 20.1607 193.832 18.0327 193.832 14.1407V12.7407C193.832 8.9887 191.368 7.0007 187.924 7.0007H181.792V28.0007H185.152ZM187.644 10.0807C189.38 10.0807 190.472 10.8927 190.472 13.0207V13.8607C190.472 16.1567 189.38 17.0807 187.644 17.0807H185.152V10.0807H187.644Z" fill="black"/>
        <path d="M200.559 14.0007H197.199V28.0007H200.559V20.8607C200.559 18.5087 202.015 17.2207 204.507 17.2207C205.067 17.2207 205.571 17.3047 205.963 17.4447V13.7767C205.795 13.7207 205.515 13.7207 205.263 13.7207C203.219 13.7207 201.567 14.6167 200.559 16.2687V14.0007Z" fill="black"/>
        <path d="M214.939 28.2807C219.027 28.2807 222.079 25.2847 222.079 21.0007C222.079 16.7167 219.027 13.7207 214.939 13.7207C210.851 13.7207 207.799 16.7167 207.799 21.0007C207.799 25.2847 210.851 28.2807 214.939 28.2807ZM214.939 25.2007C212.783 25.2007 211.159 23.5207 211.159 21.0007C211.159 18.4807 212.783 16.8007 214.939 16.8007C217.095 16.8007 218.719 18.4807 218.719 21.0007C218.719 23.5207 217.095 25.2007 214.939 25.2007Z" fill="black"/>
        <path d="M3.68844 28.4574C1.54195 29.6972 0 28.664 0 26.8262C0 24.8698 0 18.9996 0 18.9996C0 18.9996 0 13.1294 0 11.173C0 9.33518 1.54099 8.30196 3.68844 9.54182C7.03156 11.4724 17.06 17.2661 17.06 17.2661C18.3934 18.0362 18.3934 19.962 17.06 20.7322C17.06 20.7331 7.03156 26.5268 3.68844 28.4574Z" fill="#00C1FF"/>
        <path d="M14.7255 28.4574C12.5791 29.6972 11.0371 28.664 11.0371 26.8262C11.0371 24.8698 11.0371 18.9996 11.0371 18.9996C11.0371 18.9996 11.0371 13.1294 11.0371 11.173C11.0371 9.33518 12.5781 8.30196 14.7255 9.54182C17.995 11.4303 27.8034 17.0968 27.8034 17.0968C29.2679 17.9425 29.2679 20.0567 27.8034 20.9024C27.8025 20.9024 17.995 26.5689 14.7255 28.4574Z" fill="#BCEC30"/>
        <mask id="mask0_33_4882" style="mask-type:alpha" maskUnits="userSpaceOnUse" x="11" y="9" width="18" height="20">
        <path d="M14.7255 28.4574C12.5791 29.6972 11.0371 28.664 11.0371 26.8262C11.0371 24.8698 11.0371 18.9996 11.0371 18.9996C11.0371 18.9996 11.0371 13.1294 11.0371 11.173C11.0371 9.33518 12.5781 8.30196 14.7255 9.54182C17.995 11.4303 27.8034 17.0968 27.8034 17.0968C29.2679 17.9425 29.2679 20.0567 27.8034 20.9024C27.8025 20.9024 17.995 26.5689 14.7255 28.4574Z" fill="#6FE4FF"/>
        </mask>
        <g mask="url(#mask0_33_4882)">
        <g filter="url(#filter0_f_33_4882)">
        <path d="M3.68844 28.4593C1.54195 29.6992 0 28.666 0 26.8282C0 24.8718 0 19.0016 0 19.0016C0 19.0016 0 13.1313 0 11.1749C0 9.33713 1.54099 8.30391 3.68844 9.54377C7.03156 11.4744 17.06 17.268 17.06 17.268C18.3934 18.0382 18.3934 19.964 17.06 20.7341C17.06 20.7351 7.03156 26.5287 3.68844 28.4593Z" fill="#99D100"/>
        </g>
        </g>
        <defs>
        <filter id="filter0_f_33_4882" x="-1.46124" y="7.54071" width="20.983" height="22.9225" filterUnits="userSpaceOnUse" color-interpolation-filters="sRGB">
        <feFlood flood-opacity="0" result="BackgroundImageFix"/>
        <feBlend mode="normal" in="SourceGraphic" in2="BackgroundImageFix" result="shape"/>
        <feGaussianBlur stdDeviation="0.730621" result="effect1_foregroundBlur_33_4882"/>
        </filter>
        </defs>
    </symbol>
    <symbol id="icon-search"  viewBox="0 0 67 67" xmlns="http://www.w3.org/2000/svg">
        <rect width="67" height="67" rx="33.5" fill="#C7E957"/>
        <path d="M32.8979 22.8712C32.8979 25.2712 32.0339 26.2632 29.9539 26.2632H29.1859V28.9512H32.8979V45.7832H36.0979V21.7832H32.8979V22.8712Z" fill="black"/>
    </symbol>
    <symbol id="icon-search"  viewBox="0 0 67 67" xmlns="http://www.w3.org/2000/svg">
        <rect width="67" height="67" rx="33.5" fill="#C7E957"/>
        <path d="M39.7696 28.1512C39.7696 23.7352 37.0176 21.4632 33.6256 21.4632C30.1696 21.4632 27.4176 23.7032 27.4176 28.1832V30.2952H30.6176V28.4392C30.6176 25.4312 31.8336 24.4072 33.6256 24.4072C35.3216 24.4072 36.5696 25.4952 36.5696 28.1512C36.5696 34.0072 27.2256 36.5672 27.2256 44.1832V45.7832H40.0896V42.8392H30.6816C31.5136 37.6232 39.7696 34.7752 39.7696 28.1512Z" fill="black"/>
    </symbol>
    <symbol id="icon-search"  viewBox="0 0 67 67" xmlns="http://www.w3.org/2000/svg">
        <rect width="67" height="67" rx="33.5" fill="#C7E957"/>
        <path d="M33.6666 35.0312C35.8426 35.0312 37.2186 36.0872 37.2186 38.7432V39.4472C37.2186 42.0392 35.8426 43.1592 33.6666 43.1592C31.4906 43.1592 30.0506 42.0072 30.0506 39.3832V38.2632H26.8506V39.6712C26.8506 43.8632 29.8906 46.1032 33.6666 46.1032C37.4106 46.1032 40.4186 43.8632 40.4186 39.7352V38.3272C40.4186 35.7352 39.0426 33.9752 36.9626 33.1112C38.6586 32.2472 39.7786 30.6472 39.7786 28.3752V27.2232C39.7786 23.4792 37.0266 21.4632 33.6666 21.4632C30.2426 21.4632 27.4906 23.4472 27.4906 27.1592V28.3112H30.6906V27.4472C30.6906 25.3032 31.9386 24.4072 33.6666 24.4072C35.3946 24.4072 36.5786 25.3032 36.5786 27.5112V28.4712C36.5786 30.8392 35.4586 31.8312 33.6666 31.8312H31.8746V35.0312H33.6666Z" fill="black"/>
    </symbol>

</svg>